<svg xmlns="http://www.w3.org/2000/svg" xmlns:xlink="http://www.w3.org/1999/xlink" width="1681.831" height="27.423" viewBox="0 0 1681.831 27.423"><defs><style>.a{fill:red;}.b{fill:#fff;}.c{clip-path:url(#a);}.d{fill:url(#b);}</style><clipPath id="a"><rect class="a" width="1673" height="20" rx="10" transform="translate(129 5963)"/></clipPath><linearGradient id="b" y1="0.5" x2="1" y2="0.5" gradientUnits="objectBoundingBox"><stop offset="0" stop-color="#4c9c2e" stop-opacity="0.4"/><stop offset="1" stop-color="#4c9c2e"/></linearGradient></defs><g transform="translate(-125.27 -5959.577)"><path class="b" d="M1793.389,5987H138.981a13.711,13.711,0,0,1-13.711-13.712h0a13.711,13.711,0,0,1,13.711-13.711H1793.389a13.711,13.711,0,0,1,13.712,13.711h0A13.712,13.712,0,0,1,1793.389,5987Z"/><g class="c"><g transform="translate(15.617)"><path class="d" d="M1791.966,5982.886H138.981a9.6,9.6,0,0,1-9.6-9.6h0a9.6,9.6,0,0,1,9.6-9.6H1791.966a9.6,9.6,0,0,1,9.6,9.6h0A9.6,9.6,0,0,1,1791.966,5982.886Z" transform="translate(-16)"/></g></g></g></svg>